<svg width="22px" height="22px" viewBox="0 0 22 22" version="1.1" xmlns="http://www.w3.org/2000/svg"
     xmlns:xlink="http://www.w3.org/1999/xlink">
  <path
    d="M9.28,15.52 L15.04,11.2 L9.28,6.88 L9.28,15.52 L9.28,15.52 Z M11.2,1.6 C5.9008,1.6 1.6,5.9008 1.6,11.2 C1.6,16.4992 5.9008,20.8 11.2,20.8 C16.4992,20.8 20.8,16.4992 20.8,11.2 C20.8,5.9008 16.4992,1.6 11.2,1.6 L11.2,1.6 Z M11.2,18.88 C6.9664,18.88 3.52,15.4336 3.52,11.2 C3.52,6.9664 6.9664,3.52 11.2,3.52 C15.4336,3.52 18.88,6.9664 18.88,11.2 C18.88,15.4336 15.4336,18.88 11.2,18.88 L11.2,18.88 Z"
    stroke="none" stroke-width="1" fill="#FFF" fill-rule="evenodd"></path>
</svg>
