<svg width="22" height="22" viewBox="0 0 22 22" fill="none" xmlns="http://www.w3.org/2000/svg">
<path d="M11 21C16.5228 21 21 16.5228 21 11C21 5.47715 16.5228 1 11 1C5.47715 1 1 5.47715 1 11C1 16.5228 5.47715 21 11 21Z" stroke="white" stroke-width="1.5"/>
<path d="M9.97698 15.2103C9.86671 15.2088 9.75801 15.184 9.65804 15.1374C9.55806 15.0909 9.46909 15.0237 9.39699 14.9402L6.187 11.1102C6.05439 10.9577 5.98778 10.7588 6.00185 10.5572C6.01591 10.3556 6.10948 10.1678 6.26198 10.0352C6.41448 9.90262 6.61342 9.83602 6.81502 9.85008C7.01662 9.86415 7.20438 9.95775 7.33699 10.1102L9.97698 13.2602L15.827 6.26024C15.9582 6.11174 16.1415 6.01952 16.3389 6.00276C16.5364 5.986 16.7327 6.04598 16.887 6.17024C16.9627 6.23376 17.0252 6.31162 17.0708 6.39937C17.1163 6.48711 17.1441 6.58302 17.1525 6.68153C17.1608 6.78005 17.1496 6.87923 17.1195 6.9734C17.0894 7.06757 17.0409 7.15486 16.977 7.23024L10.547 14.8902C10.4828 14.9837 10.3981 15.0611 10.2992 15.1166C10.2004 15.1721 10.0901 15.2041 9.97698 15.2103Z" fill="white"/>
</svg>
