<svg xmlns="http://www.w3.org/2000/svg" width="1207" height="373" viewBox="0 0 1207 373" fill="none">
  <rect x="1" y="2" width="1199" height="361" fill="#20C4F4"/>
  <path d="M0 364.891H411.009V365.809H653.721V363.418H787.176V360.129H623.492V358.644H377.533V357H368.692V358.644H256.177V357H13.465V358.644H0V364.891Z" fill="white"/>
  <path d="M837.224 371.618H552.632V372.75H970.326V369.771H1200V365.671H918.313V363.823H495.013V361.773H479.808V363.823H286.161V361.773H860.406V363.823H837.224V371.618Z" fill="#00C3F6"/>
  <path d="M7 7.89108H418.009V8.8094H660.721V6.41751H794.176V3.12867H630.492V1.64442H384.533V0H375.692V1.64442H263.177V0H20.465V1.64442H7V7.89108Z" fill="#20C4F4"/>
  <path d="M844.224 14.6184H559.632V15.7502H977.326V12.7711H1207V8.67068H925.313V6.82338H502.013V4.77319H486.808V6.82338H293.161V4.77319H867.406V6.82338H844.224V14.6184Z" fill="white"/>
</svg>
