<?xml version="1.0" encoding="UTF-8"?>
<svg width="2461px" height="2198px" viewBox="0 0 2461 2198" version="1.1" xmlns="http://www.w3.org/2000/svg" xmlns:xlink="http://www.w3.org/1999/xlink">
    <title>Graphic/Web extended</title>
    <g id="Graphic/Web-extended" stroke="none" stroke-width="1" fill="none" fill-rule="evenodd">
        <g id="web-extended" stroke="#00A9FF">
            <polygon id="Path" points="1254.3288 1058.95547 1238.33098 1058.95547 1222.33317 1058.95547 1206.33535 1058.95547 1190.33753 1074.95328 1190.33753 1090.9511 1190.33753 1106.94892 1190.33753 1122.94673 1190.33753 1138.94455 1206.33535 1138.94455 1222.33317 1138.94455 1238.33098 1138.94455 1254.3288 1138.94455 1270.32662 1122.94673 1270.32662 1106.94892 1270.32662 1090.9511 1270.32662 1074.95328 1270.32662 1058.95547"></polygon>
            <polygon id="Path" opacity="0.9655" points="1271.02652 1031.5592 1243.13033 1027.05982 1215.23414 1022.46045 1182.83856 1030.35937 1162.84129 1058.25556 1158.3419 1086.15175 1153.84251 1114.04795 1149.24314 1141.94414 1161.74144 1161.94141 1189.63763 1166.4408 1217.53382 1170.94018 1245.43001 1175.53955 1277.82559 1167.64063 1297.72288 1139.74444 1302.32225 1111.84825 1306.82163 1083.95205 1311.32102 1056.05586 1298.92271 1036.05859"></polygon>
            <polygon id="Path" opacity="0.931" points="1287.72424 1004.06296 1247.92967 995.064186 1208.23509 985.965428 1159.34176 1001.76327 1135.44503 1041.55784 1126.34627 1081.35241 1117.24751 1121.14698 1108.24874 1160.94155 1133.14534 1184.83828 1172.93991 1193.93704 1212.63449 1202.93581 1252.42906 1212.03457 1301.32239 1196.23673 1325.21912 1156.44216 1334.31788 1116.64759 1343.31665 1076.85302 1352.41541 1037.05845 1327.51881 1013.16172"></polygon>
            <polygon id="Path" opacity="0.8966" points="1304.42196 976.666697 1252.829 963.068553 1201.13606 949.470409 1135.84497 973.167175 1107.94878 1024.86012 1094.35063 1076.55306 1080.75249 1128.14602 1067.15435 1179.83897 1104.54924 1207.83515 1156.1422 1221.3333 1207.83515 1234.93145 1259.52809 1248.52959 1324.71919 1224.83283 1352.71537 1173.13988 1366.31351 1121.44694 1379.81167 1069.85398 1393.40982 1018.16103 1356.11491 990.164855"></polygon>
            <polygon id="Path" opacity="0.8621" points="1321.11968 949.17045 1257.62835 931.07292 1194.03703 912.97539 1112.34818 944.571078 1080.45253 1008.1624 1062.355 1071.75372 1044.25747 1135.24505 1026.15994 1198.83637 1075.95315 1230.73202 1139.44448 1248.82955 1203.0358 1266.92708 1266.62712 1285.02461 1348.21599 1253.42892 1380.11163 1189.8376 1398.30915 1126.24628 1416.40668 1062.75495 1434.50421 999.163626 1384.711 967.26798"></polygon>
            <polygon id="Path" opacity="0.8276" points="1337.91739 921.674203 1262.42769 899.077287 1187.03798 876.380385 1088.95137 915.974981 1053.05627 991.464677 1030.35937 1066.85439 1007.76245 1142.34408 985.065551 1217.73379 1047.35705 1253.6289 1122.74676 1276.3258 1198.23646 1298.92271 1273.62617 1321.61962 1371.71278 1282.02502 1407.60788 1206.53532 1430.20479 1131.14561 1452.9017 1055.65592 1475.49861 980.266206 1413.3071 944.371105"></polygon>
            <polygon id="Path" opacity="0.7931" points="1354.61511 894.277942 1267.22704 867.081654 1179.93895 839.885366 1065.45458 887.378884 1025.56002 974.766956 998.363736 1062.05504 971.267434 1149.34313 944.071146 1236.7312 1018.66097 1276.62576 1106.04904 1303.72206 1193.33712 1330.91835 1280.7252 1358.11463 1395.20957 1310.62112 1435.10413 1223.23304 1462.20043 1135.94496 1489.39672 1048.65687 1516.593 961.268799 1441.9032 921.374244"></polygon>
            <polygon id="Path" opacity="0.7586" points="1371.31283 866.781695 1272.12637 835.086021 1172.83992 803.390347 1041.95779 858.782787 998.063777 957.969249 966.368103 1057.2557 934.672429 1156.44216 902.976755 1255.72861 990.064868 1299.52263 1089.35132 1331.21831 1188.53778 1362.91398 1287.72424 1394.60965 1418.70636 1339.21721 1462.50039 1240.03075 1494.19606 1140.7443 1525.89173 1041.55784 1557.58741 942.271392 1470.49929 898.477369"></polygon>
            <polygon id="Path" opacity="0.7241" points="1388.01055 839.285448 1276.92572 803.090388 1165.84088 766.895328 1018.46099 830.18669 970.667516 941.271528 934.37247 1052.45635 898.17741 1163.54119 861.98235 1274.62603 961.468771 1322.41951 1072.6536 1358.71455 1183.73843 1394.90961 1294.82327 1431.10467 1442.20316 1367.81331 1489.99663 1256.72847 1526.19169 1145.54365 1562.48674 1034.45881 1598.6818 923.373971 1499.09539 875.580494"></polygon>
            <polygon id="Path" opacity="0.6897" points="1404.70827 811.889187 1281.72506 771.094755 1158.74185 730.400309 994.9642 801.590593 943.171269 924.573807 902.476823 1047.55702 861.682391 1170.54024 820.887959 1293.62344 932.872674 1345.41637 1055.85589 1386.11081 1178.93909 1426.90524 1301.9223 1467.59969 1465.69995 1396.40941 1517.49288 1273.42619 1558.18733 1150.44298 1598.98176 1027.45976 1639.6762 904.376564 1527.69149 852.583633"></polygon>
            <polygon id="Path" opacity="0.6552" points="1421.406 784.39294 1286.52441 739.099122 1151.64281 693.805304 971.467407 772.994496 915.775008 907.876086 870.48119 1042.75768 825.187372 1177.63927 779.893554 1312.52086 904.276577 1368.31324 1039.15817 1413.60706 1174.03976 1458.90088 1308.92135 1504.1947 1489.09676 1425.0055 1544.88914 1290.12391 1590.18296 1155.24232 1635.47678 1020.36073 1680.7706 885.479143 1556.38757 829.686758"></polygon>
            <polygon id="Path" opacity="0.6207" points="1438.2037 756.996679 1291.42374 707.103489 1144.64377 657.310285 947.970614 744.398399 888.278761 891.178365 838.485557 1037.95833 788.692353 1184.7383 738.799163 1331.51826 875.68048 1391.21012 1022.46045 1441.00332 1169.24041 1490.89651 1316.02038 1540.68971 1512.59355 1453.6016 1572.38539 1306.82163 1622.17859 1160.04167 1671.9718 1013.2617 1721.765 866.481736 1584.98367 806.789883"></polygon>
            <polygon id="Path" opacity="0.5862" points="1454.90142 729.500432 1296.22308 675.107856 1137.54474 620.815266 924.573807 715.802302 860.782514 874.480644 806.489924 1033.15899 752.097348 1191.73734 697.804758 1350.41568 847.084383 1414.20698 1005.76273 1468.49957 1164.44107 1522.89214 1323.11941 1577.18473 1536.09034 1482.1977 1599.78165 1323.51936 1654.17423 1164.84101 1708.46682 1006.26266 1762.85939 847.584315 1613.57977 783.793022"></polygon>
            <polygon id="Path" opacity="0.5517" points="1471.59914 702.004185 1301.02243 643.212209 1130.44571 584.320247 901.077014 687.206205 833.386253 857.682937 774.494291 1028.25966 715.602329 1198.83637 656.710367 1369.41309 818.488286 1437.10385 989.065005 1495.99581 1159.64172 1554.78779 1330.11846 1613.67975 1559.58714 1510.7938 1627.2779 1340.31706 1686.16986 1169.74034 1745.06182 999.163626 1803.8538 828.586908 1642.17586 760.896147"></polygon>
            <polygon id="Path" opacity="0.5172" points="1488.29687 674.607924 1305.82177 611.216576 1123.44666 547.825229 877.580221 658.610108 805.890006 840.985216 742.498658 1023.46031 679.10731 1205.9354 615.715962 1388.4105 789.892189 1460.00073 972.367284 1523.39208 1154.74239 1586.78342 1337.21749 1650.17477 1583.08393 1539.38989 1654.77414 1357.01478 1718.16549 1174.53969 1781.55684 992.064595 1844.94819 809.589501 1670.77196 737.999272"></polygon>
            <polygon id="Path" opacity="0.4828" points="1504.99459 647.111677 1310.7211 579.220943 1116.34763 511.230223 854.083428 629.914024 778.393759 824.287495 710.503025 1018.66097 642.612291 1212.93445 574.621571 1407.30792 761.296092 1482.99759 955.569576 1550.88832 1149.94305 1618.77906 1344.31652 1686.76978 1606.58072 1568.08598 1682.1704 1373.71251 1750.16112 1179.33903 1818.05186 985.065551 1885.94259 790.69208 1699.36806 715.002411"></polygon>
            <polygon id="Path" opacity="0.4483" points="1521.69231 619.61543 1315.52045 547.22531 1109.2486 474.735204 830.586635 601.317927 750.997498 807.589774 678.507392 1013.86162 606.017286 1220.03348 533.627166 1426.30533 732.699995 1505.89446 938.871856 1578.38457 1145.1437 1650.77469 1351.31556 1723.2648 1630.07751 1596.68207 1709.66665 1390.41023 1782.15676 1184.13838 1854.54688 977.96652 1927.03698 771.694673 1727.96415 692.105536"></polygon>
            <polygon id="Path" opacity="0.4138" points="1538.49002 592.219169 1320.31979 515.229677 1102.24956 438.240186 807.089842 572.721831 723.501251 790.892053 646.511759 1008.96229 569.522267 1227.13251 492.532775 1445.20275 704.103898 1528.79134 922.174135 1605.78083 1140.34436 1682.77032 1358.41459 1759.75981 1653.57431 1625.27817 1737.1629 1407.10795 1814.15239 1189.03771 1891.0419 970.867489 1968.03139 752.797252 1756.56025 669.208661"></polygon>
            <polygon id="Path" opacity="0.3793" points="1555.18774 564.722922 1325.11914 483.234044 1095.15053 401.745167 783.593049 544.125734 696.005004 774.194332 614.516126 1004.16294 533.027248 1234.13156 451.538371 1464.20015 675.507801 1551.7882 905.476414 1633.27708 1135.44503 1714.76596 1365.51362 1796.25483 1676.97111 1653.87427 1764.55916 1423.80567 1846.04804 1193.83706 1927.6369 963.868444 2009.12578 733.799845 1785.15635 646.2118"></polygon>
            <polygon id="Path" opacity="0.3448" points="1571.88546 537.226675 1330.01847 451.238411 1088.05149 365.250148 760.096256 515.529637 668.608743 757.396625 582.520493 999.363599 496.532229 1241.23059 410.443979 1483.09758 646.911704 1574.68507 888.778693 1660.77332 1130.64568 1746.76159 1372.51267 1832.74985 1700.46791 1682.47036 1792.05541 1440.60338 1878.04367 1198.6364 1964.13192 956.769413 2050.12018 714.902425 1813.75245 623.314925"></polygon>
            <polygon id="Path" opacity="0.3103" points="1588.58318 509.830414 1334.81781 419.242779 1081.05245 328.655143 736.69945 486.93354 641.112496 740.698904 550.52486 994.564254 460.037211 1248.32962 369.449575 1502.09498 618.215621 1597.58195 872.080972 1688.16959 1125.84634 1778.75722 1379.6117 1869.34486 1723.9647 1711.06646 1819.55165 1457.3011 1910.0393 1203.43575 2000.62694 949.670382 2091.21457 695.905018 1842.34854 600.41805"></polygon>
            <polygon id="Path" opacity="0.2759" points="1605.2809 482.334167 1339.61716 387.247146 1073.95342 292.160124 713.202657 458.337443 613.716235 724.001183 518.529227 989.664923 423.442205 1255.32866 328.355184 1521.09239 589.619524 1620.57881 855.383251 1715.66583 1121.04699 1810.75285 1386.71073 1905.83988 1747.46149 1739.66256 1846.94791 1473.99882 1942.03494 1208.33508 2037.12196 942.671337 2132.20898 676.90761 1870.94464 577.421189"></polygon>
            <polygon id="Path" opacity="0.2414" points="1621.97862 454.937907 1344.4165 355.251513 1066.85439 255.665105 689.705864 429.741346 586.219988 707.303462 486.63358 984.865578 386.947186 1262.42769 287.360779 1539.98981 561.023427 1643.47569 838.585543 1743.06209 1116.14766 1842.74849 1393.70978 1942.3349 1770.95829 1768.25865 1874.44416 1490.69654 1974.03057 1213.13442 2073.61698 935.572306 2173.30337 658.01019 1899.54074 554.524314"></polygon>
            <polygon id="Path" opacity="0.2069" points="1638.77633 427.441659 1349.31583 323.25588 1059.85534 219.170086 666.209071 401.145249 558.723741 690.605741 454.637948 980.066233 350.452168 1269.52673 246.266388 1558.98722 532.42733 1666.37256 821.887822 1770.55834 1111.34831 1874.74412 1400.80881 1978.82991 1794.45508 1796.85475 1901.84042 1507.39426 2006.0262 1217.93377 2110.21198 928.473275 2214.29778 639.012783 1928.13683 531.627439"></polygon>
            <polygon id="Path" opacity="0.1724" points="1655.47405 399.945412 1354.11518 291.260247 1052.75631 182.575081 642.712278 372.549152 531.32748 673.90802 422.642315 975.266888 313.957149 1276.52577 205.271983 1577.88464 503.831233 1689.36942 805.190101 1798.05459 1106.54897 1906.73975 1407.90784 2015.42492 1817.95187 1825.45085 1929.33667 1524.09198 2038.02184 1222.73311 2146.707 921.47423 2255.39217 620.115362 1956.83292 508.630578"></polygon>
            <polygon id="Path" opacity="0.1379" points="1672.17177 372.549152 1358.91452 259.264614 1045.65728 146.080062 619.215485 343.953055 503.831233 657.210299 390.646682 970.367557 277.46213 1283.6248 164.177592 1596.88205 475.235136 1712.2663 788.49238 1825.45085 1101.74962 1938.73539 1414.90688 2051.91994 1841.34868 1854.04695 1956.83292 1540.7897 2070.01747 1227.63244 2183.20202 914.375199 2296.38657 601.117955 1985.42901 485.733703"></polygon>
            <polygon id="Path" opacity="0.1034" points="1688.86949 345.052905 1363.71387 227.368967 1038.65824 109.585043 595.718692 315.356958 476.334986 640.412592 358.651049 965.568212 240.867125 1290.72383 123.183187 1615.77947 446.639039 1735.16317 771.79466 1852.9471 1096.85029 1970.63103 1422.00591 2088.41496 1864.84547 1882.64304 1984.22918 1557.58741 2102.0131 1232.43179 2219.69704 907.276168 2337.48096 582.220534 2014.02511 462.836828"></polygon>
            <polygon id="Path" opacity="0.06896552" points="1705.56721 317.556657 1368.6132 195.373334 1031.5592 73.0900241 572.321885 286.760861 448.938725 623.714871 326.655416 960.768867 204.372106 1297.72288 82.0887959 1634.77687 418.042942 1758.16003 755.096939 1880.44334 1092.05095 2002.62667 1429.10494 2124.90998 1888.34226 1911.23914 2011.72542 1574.28513 2134.00873 1237.23113 2256.29204 900.277123 2378.47537 563.223127 2042.62121 439.839967"></polygon>
            <polygon id="Path" opacity="0.03448276" points="1722.26493 290.160397 1373.41255 163.377701 1024.46017 36.5950052 548.825092 258.164764 421.442478 607.01715 294.659783 955.969522 167.877087 1304.82191 41.0943911 1653.77428 389.446845 1781.05691 738.299231 1907.8396 1087.2516 2034.6223 1436.10399 2161.40499 1911.83906 1939.83524 2039.22167 1590.98285 2166.00437 1242.03048 2292.78706 893.178092 2419.56976 544.22572 2071.2173 416.943092"></polygon>
            <polygon id="Path" opacity="0" points="2099.8134 393.946231 1738.96265 262.66415 1378.21189 131.382068 1017.46113 0 525.328299 229.46868 393.946231 590.319429 262.66415 951.070191 131.382068 1311.92094 0 1672.6717 360.850748 1804.05377 721.60151 1935.33585 1082.45226 2066.61793 1443.20302 2198 1935.33585 1968.53132 2066.61793 1607.68057 2198 1246.92981 2329.28208 886.079061 2460.56416 525.328299"></polygon>
        </g>
    </g>
</svg>