<?xml version="1.0" encoding="UTF-8"?>
<svg width="2000px" height="1812.06401px" viewBox="0 0 2000 1812.06401" version="1.1" xmlns="http://www.w3.org/2000/svg" xmlns:xlink="http://www.w3.org/1999/xlink">
    <title>Graphic/Web</title>
    <g id="Graphic/Web" stroke="none" stroke-width="1" fill="none" fill-rule="evenodd">
        <g id="web" stroke="#20C4F4" stroke-width="1.39416476">
            <polygon id="Path" points="1097.48284 740.612966 1032.49428 740.612966 967.505721 740.612966 902.517162 740.612966 837.528604 806.548415 837.528604 872.483864 837.528604 938.419313 837.528604 1004.35476 837.528604 1070.29021 902.517162 1070.29021 967.505721 1070.29021 1032.49428 1070.29021 1097.48284 1070.29021 1162.4714 1004.35476 1162.4714 938.419313 1162.4714 872.483864 1162.4714 806.548415 1162.4714 740.612966"></polygon>
            <polygon id="Path" opacity="0.9524" points="1112.59987 716.09489 1036.66609 710.982626 960.81362 705.787905 879.757975 714.858052 812.767152 791.789387 807.64528 868.803177 802.604709 945.816968 797.482838 1022.83076 811.466359 1090.7744 887.400132 1095.96912 963.252606 1101.08139 1039.18638 1106.27611 1120.16073 1097.20596 1187.23285 1020.27463 1192.27342 943.260836 1197.39529 866.247045 1202.51716 789.233254 1188.53364 721.28961"></polygon>
            <polygon id="Path" opacity="0.9048" points="1127.76961 690.425987 1040.96275 680.113998 954.074535 669.802009 857.098177 687.868614 788.026929 775.891755 777.857428 863.997392 767.687928 952.020533 757.437071 1040.12617 785.423537 1110.1652 872.31175 1120.47719 959.118607 1130.78918 1046.00682 1141.10117 1142.98318 1123.03456 1212.05443 1035.01142 1222.22393 946.905786 1232.39343 858.882645 1242.56293 770.777008 1214.65782 700.737977"></polygon>
            <polygon id="Path" opacity="0.8571" points="1143.13379 665.924016 1045.57447 650.491745 948.015144 634.976948 835.184253 662.045317 764.268941 761.158462 748.997373 860.271608 733.725805 959.467279 718.535469 1058.58042 760.369817 1130.6252 857.929141 1146.14 955.569697 1161.57227 1053.12902 1177.08707 1165.95991 1150.0187 1236.87522 1050.90555 1252.14679 951.792405 1267.33713 852.596735 1282.6087 753.483589 1240.69312 681.438813"></polygon>
            <polygon id="Path" opacity="0.8095" points="1158.24047 641.347862 1049.74186 620.749874 941.243256 600.151886 812.426559 636.157169 739.525248 746.150425 719.125885 856.14368 698.807794 966.136935 678.489703 1076.13019 734.323817 1150.11816 842.822423 1170.71615 951.32103 1191.31414 1059.81964 1211.91213 1188.63633 1175.90684 1261.61892 1065.91359 1281.93701 955.920333 1302.2551 845.927078 1322.65446 735.933823 1266.73908 661.94585"></polygon>
            <polygon id="Path" opacity="0.7619" points="1173.4032 615.682353 1054.03548 589.882958 934.586455 564.16599 789.767722 609.170684 714.796991 730.254743 689.345972 851.338802 663.894954 972.340434 638.443936 1093.42449 708.373251 1169.42143 827.740966 1195.22083 947.189995 1221.02022 1066.63902 1246.73719 1211.45776 1201.73249 1286.42849 1080.64843 1311.87951 959.564376 1337.33052 838.562744 1362.70023 717.478685 1292.85223 641.481747"></polygon>
            <polygon id="Path" opacity="0.7143" points="1187.72286 591.181425 1057.51094 560.261177 927.380251 529.340929 766.707027 583.348296 689.782081 715.52205 659.320777 847.613351 628.859473 979.787105 598.398169 1111.87841 682.146448 1189.96234 812.277138 1220.88259 942.489058 1251.80284 1072.61975 1282.72308 1233.29297 1228.71572 1310.13669 1096.54196 1340.59799 964.450662 1371.14053 832.276908 1401.60183 700.185607 1317.85355 622.101674"></polygon>
            <polygon id="Path" opacity="0.6667" points="1202.82473 565.590467 1061.75753 529.47275 920.60907 493.355032 744.031291 556.437347 665.046661 699.671307 629.536082 842.822808 593.944242 985.974308 558.352403 1129.12581 656.108071 1209.19499 797.175271 1245.31271 938.24247 1281.43043 1079.30967 1317.54815 1255.96871 1254.38337 1334.87208 1111.23187 1370.46392 968.08037 1406.05576 824.92887 1441.6476 681.77737 1343.89193 601.708184"></polygon>
            <polygon id="Path" opacity="0.619" points="1217.98342 541.093705 1065.96813 499.853079 913.952844 458.529971 721.291756 530.701067 640.325325 684.941009 599.679526 839.09847 559.033727 993.338412 518.306636 1147.57835 630.082583 1229.72968 782.097872 1270.97031 934.11316 1312.21093 1086.12845 1353.53404 1278.78954 1281.36295 1359.67468 1127.123 1400.40177 972.965543 1441.04756 818.725601 1481.69336 664.485659 1369.99871 582.334331"></polygon>
            <polygon id="Path" opacity="0.5714" points="1233.37519 516.487059 1070.59172 470.095985 907.889476 423.70491 699.373919 504.786291 616.520056 669.833045 570.787972 834.962199 525.137118 1000.09135 479.405034 1165.13811 604.985498 1249.18588 767.768971 1295.57695 930.471215 1341.96803 1093.25469 1388.3591 1301.68902 1307.27772 1384.54288 1142.23097 1430.27496 977.101814 1476.00705 811.972661 1521.73913 646.925907 1396.15867 562.878134"></polygon>
            <polygon id="Path" opacity="0.5238" points="1248.47425 490.944287 1074.83711 439.290393 901.118704 387.719014 676.69858 477.907042 591.789446 654.239903 541.006471 830.655278 490.142243 1006.98814 439.359268 1183.321 578.95151 1269.54835 752.669911 1321.11973 926.30706 1372.77362 1099.94421 1424.345 1324.44558 1334.15697 1409.35472 1157.82411 1460.13769 981.408735 1510.92067 805.075874 1561.7849 628.743013 1422.1114 542.515667"></polygon>
            <polygon id="Path" opacity="0.4762" points="1263.63033 466.332802 1079.04659 409.613377 894.462846 352.893953 653.959413 451.988064 567.07257 639.211631 511.15288 826.435197 455.233191 1013.65876 399.313501 1200.88233 552.93009 1289.01179 737.513833 1345.73121 922.178855 1402.45064 1106.7626 1459.17006 1347.26603 1360.07595 1434.15287 1172.85238 1490.07256 985.628816 1545.91097 798.405249 1601.83066 611.181682 1448.21407 523.052227"></polygon>
            <polygon id="Path" opacity="0.4286" points="1277.8835 440.677421 1082.60962 378.75151 887.254515 316.908056 630.896626 425.010413 542.113618 623.321754 481.192067 821.633095 420.189286 1019.94444 359.267735 1218.17332 526.761387 1308.3823 722.035267 1370.22576 917.390376 1432.15167 1112.74548 1493.99512 1369.02215 1385.89276 1457.88638 1187.58142 1518.80793 989.270083 1579.81071 790.958742 1640.73227 592.729859 1473.23861 502.520875"></polygon>
            <polygon id="Path" opacity="0.381" points="1292.98074 416.183992 1086.773 349.133493 880.484009 282.082995 608.221545 399.194567 517.386143 608.593356 451.331418 817.909672 385.276693 1027.30846 319.221968 1236.70725 500.730277 1328.82952 706.938016 1395.88002 913.227003 1462.93052 1119.43474 1529.98102 1391.77845 1412.86945 1482.61386 1203.47066 1548.66858 994.154341 1614.72331 784.755551 1680.77803 575.356762 1499.26972 483.23449"></polygon>
            <polygon id="Path" opacity="0.3333" points="1308.21628 390.595074 1090.98171 318.346086 873.828407 246.097099 585.482633 372.285399 492.672353 592.743783 421.479879 813.119692 350.368675 1033.4956 279.176201 1253.95398 474.711695 1348.14159 691.864994 1420.3081 909.018294 1492.55709 1126.25286 1564.80608 1414.59864 1438.61778 1507.40892 1218.15939 1578.52012 997.783486 1649.71259 777.407578 1720.8238 556.949194 1525.36958 462.761586"></polygon>
            <polygon id="Path" opacity="0.2857" points="1323.28828 366.103081 1095.18999 288.646315 867.091695 211.272037 562.743868 346.55329 467.879041 578.016213 391.629506 809.479137 315.37997 1040.94206 239.130435 1272.40498 448.613434 1368.58666 676.711724 1445.96093 904.810015 1523.4177 1132.90831 1600.79198 1437.25613 1465.51072 1532.12096 1234.0478 1608.37049 1002.58488 1684.62003 771.121953 1760.86957 539.659029 1551.38657 443.477358"></polygon>
            <polygon id="Path" opacity="0.2381" points="1338.38287 341.398069 1099.3522 258.96374 860.321537 176.446976 539.987925 320.624618 443.156115 562.981546 361.771865 805.256039 280.468918 1047.61297 199.084668 1289.96989 422.58647 1388.14918 661.617134 1470.66594 900.647799 1553.10027 1139.59716 1635.61704 1460.01207 1491.4394 1556.84388 1249.08247 1638.22813 1006.80797 1719.53108 764.451046 1800.91533 522.094118 1577.41353 423.914832"></polygon>
            <polygon id="Path" opacity="0.1905" points="1352.66434 315.744781 1102.87166 228.10293 853.160249 140.46108 516.988391 293.648811 418.257714 547.010436 331.87853 800.454508 245.418086 1053.81613 159.038902 1307.26021 396.398824 1407.4341 646.191498 1495.1584 895.902912 1582.80025 1145.69559 1670.4421 1481.78618 1517.25437 1580.59812 1263.89274 1666.97731 1010.44867 1753.35649 757.087045 1839.81693 503.642973 1602.37575 403.469079"></polygon>
            <polygon id="Path" opacity="0.1429" points="1367.81662 291.253014 1107.16079 198.485746 846.50495 105.636019 494.331037 267.834433 393.547365 532.282991 302.029288 796.73155 210.511212 1061.26257 118.993135 1325.71113 370.383376 1427.96127 631.120489 1520.811 891.776326 1613.57827 1152.43216 1706.42799 1504.60608 1544.22958 1605.38975 1279.78102 1696.90782 1015.33246 1788.34462 750.801445 1879.8627 486.352886 1628.47246 384.102742"></polygon>
            <polygon id="Path" opacity="0.0952381" points="1382.88696 265.601011 1111.28707 167.625567 839.687188 69.6501222 471.511227 240.859737 368.756885 516.395057 272.099518 791.930377 175.523443 1067.4657 78.9473684 1343.00102 344.368988 1447.24425 615.887581 1545.30217 887.487468 1643.27761 1159.08735 1741.25306 1527.34461 1570.04344 1630.09895 1294.50812 1726.67502 1018.9728 1823.33239 743.437481 1919.90847 467.902161 1654.48685 363.658927"></polygon>
            <polygon id="Path" opacity="0.04761905" points="1398.31519 241.11037 1116.03307 137.926475 833.669687 34.8250611 449.655492 215.046332 344.998216 501.668262 243.3474 788.290192 141.696583 1074.82964 40.0457666 1361.45157 319.321431 1467.76975 601.603555 1570.95364 883.966934 1674.13754 1166.33031 1777.23895 1550.26325 1597.01768 1655.00178 1310.39575 1756.6526 1023.77382 1858.30342 737.234372 1959.95423 450.612442 1680.67857 344.294264"></polygon>
            <polygon id="Path" opacity="0" points="1706.77394 324.775154 1413.46662 216.544246 1120.24056 108.313338 827.014507 0 426.998253 189.177406 320.208054 486.66815 213.499126 784.076463 106.790199 1081.56721 0 1378.97552 293.307327 1487.28886 586.533382 1595.51977 879.840709 1703.75067 1173.06676 1812.06401 1573.08302 1622.88661 1679.79195 1325.39586 1786.58214 1027.98755 1893.29107 730.496806 2000 433.088492"></polygon>
        </g>
    </g>
</svg>