<svg id="Layer_1" data-name="Layer 1" xmlns="http://www.w3.org/2000/svg" viewBox="0 0 1201.5 301.42"><defs><style>.cls-1{fill:#323232;}.cls-2{fill:#20c4f4;}</style></defs><path class="cls-1" d="M75.29,127.75c0-26.11-16.53-41.7-44.22-41.7H0V258H21.5V179.4h9.57c27.27,0,44.22-16,44.22-41.7Zm-21.5,8.64c0,11.82-4.25,25.91-24.48,25.91H21.5V103.14h7.81c20.23,0,24.48,14.1,24.48,25.92Z"/><path class="cls-1" d="M156.76,141.14h2.34l-1.86-19.71H155.3c-13.68,0-20.88,7.81-24,12.46l-.6.91-1-12.06H112.54V258H134V167.84C134,151.12,142.54,141.14,156.76,141.14Z"/><path class="cls-1" d="M260.62,162.6c0-26.83-13.13-42.22-36-42.22-22.72,0-35.75,15.39-35.75,42.22v55.55c0,26.83,13,42.21,35.75,42.21,22.9,0,36-15.38,36-42.21Zm-21.5,60.26c0,13.55-4.89,20.41-14.53,20.41-9.46,0-14.25-6.86-14.25-20.41v-65c0-13.54,4.79-20.41,14.25-20.41,9.64,0,14.53,6.87,14.53,20.41Z"/><path class="cls-1" d="M447.63,260.36c10.49,0,18.32-3.35,23.28-10l.67-.9.07,10.9h17.94l-.38-137.65H467.72V228.47c-.69,5.56-3.43,14.8-14,14.8-9.45,0-14.25-6.78-14.25-20.15V122.74H418V223.12C418,240.11,423.16,260.36,447.63,260.36Z"/><path class="cls-1" d="M765.19,182.85l.21-.32-.21.32c-11.62-7.7-21.65-14.35-21.65-27.07,0-11.64,5.09-18.31,14-18.31,6.66,0,14.34,2.31,14.52,20.3l0,2.11h21.21l0-2.14c-.15-23.39-13.51-37.36-35.73-37.36-21.54,0-35.46,14-35.46,35.67,0,20.77,14.82,30.64,27.9,39.36,12,8,22.39,14.92,22.39,28.5,0,7.23-1.89,19.36-14.54,19.36s-14.2-11.8-14.24-20.68v-2.11H722v2.12c0,23.29,13.7,37.76,35.75,37.76,22.38,0,35.74-13.92,35.74-37.24C793.53,201.63,778.48,191.65,765.19,182.85Z"/><path class="cls-1" d="M604.7,220.48H583.48v2.38c0,18.09-7.77,20.41-14.54,20.41-9.45,0-14.24-6.86-14.24-20.41v-65c0-13.54,4.79-20.41,14.24-20.41,6.77,0,14.54,2.32,14.54,20.41v3h19.11l2.1-.68v-1.54c0-24.33-13-38.29-35.75-38.29S533.2,135.77,533.2,162.6v55.55c0,26.83,13,42.21,35.74,42.21,22.52,0,35.55-13.75,35.74-37.74Z"/><path class="cls-1" d="M691.24,237.62l-3.33,2.28A16,16,0,0,1,678,243c-6.92,0-10.15-3.49-10.15-11v-92.2h24.56V122.74H667.83V95.49h-21.5v27.25H633.18v17.09h13.15v93c0,18.28,9,27.54,26.68,27.54a51.89,51.89,0,0,0,16.81-2.47l1.42-.5Z"/><path class="cls-1" d="M301.39,224.17c0,23.34,10.41,36.19,29.31,36.19,10.94,0,19.05-3.49,24.09-10.38l.68-.92v11.31h17.59l.11-179.55h-21.5v46.9l-.63-.6c-4.78-4.53-11.44-6.73-20.34-6.73-10.95,0-29.31,4.7-29.31,36.19Zm21.49-66.81c0-13.2,4.8-19.89,14.25-19.89,12.65,0,14.54,12.46,14.54,19.89v66.55c0,4.54-1.05,19.36-14.54,19.36-9.45,0-14.25-6.69-14.25-19.88Z"/><rect class="cls-2" x="893.59" y="122.44" width="43.16" height="135.94"/><polygon class="cls-2" points="972.52 122.44 972.52 301.42 1015.68 301.42 1015.64 122.44 972.52 122.44"/><path class="cls-2" d="M1076.53,148.22h0a41.21,41.21,0,0,0-5.65-14A31.19,31.19,0,0,0,1060.17,124c-4.41-2.55-9.84-3.84-16.16-3.84a45.59,45.59,0,0,0-17,3.35l-.37.15v23.06a6.79,6.79,0,0,1,4.51,1.66,10.27,10.27,0,0,1,2.83,5,31.54,31.54,0,0,1,.93,8v54.83a39.89,39.89,0,0,1-.94,8.94,12.69,12.69,0,0,1-2.82,5.78,6.36,6.36,0,0,1-4.51,1.76v24.4a38.9,38.9,0,0,0,16.08,3.52c8.12,0,14.89-2.08,20.12-6.19a36.4,36.4,0,0,0,11.55-16.52,68.48,68.48,0,0,0,3.68-23.28v-51.2A74,74,0,0,0,1076.53,148.22Z"/><path class="cls-2" d="M882.79,231.85h-.09c-2.67,0-4.45-.6-5.3-1.79-1-1.44-1.55-3.73-1.55-6.81V122.44H832.69v105.8a41.71,41.71,0,0,0,3,15.9,26.41,26.41,0,0,0,9.62,12c4.36,3,9.81,4.51,16.2,4.51a46.51,46.51,0,0,0,19.36-4.18c.63-.29,1.29-.61,2-.95Z"/><polygon class="cls-1" points="1120.88 0 1078.03 42.74 1151.15 42.74 1193.9 0 1120.88 0"/><polygon class="cls-2" points="1158.76 50.34 1158.76 123.5 1201.5 80.64 1201.5 7.62 1158.76 50.34"/></svg>