<svg xmlns="http://www.w3.org/2000/svg" width="32" height="32" viewBox="0 0 32 32">
    <defs>
        <filter id="3t9u0tmxga" color-interpolation-filters="auto">
            <feColorMatrix in="SourceGraphic" values="0 0 0 0 0.121569 0 0 0 0 0.152941 0 0 0 0 0.196078 0 0 0 1.000000 0"/>
        </filter>
    </defs>
    <g fill="none" fill-rule="evenodd">
        <g>
            <g filter="url(#3t9u0tmxga)" transform="translate(-747.000000, -224.000000) translate(747.000000, 224.000000)">
                <g fill="#FFF">
                    <path d="M16 0c8.837 0 16 7.163 16 16s-7.163 16-16 16S0 24.837 0 16 7.163 0 16 0zm.964 8h-1.928c-1.453.004-1.779.017-2.54.051-.905.041-1.523.184-2.064.395-.559.217-1.033.508-1.505.98-.473.472-.763.947-.981 1.506-.21.541-.354 1.159-.395 2.063l-.021.49-.01.277c-.012.406-.017.874-.02 1.774v1.928c.004 1.453.017 1.779.051 2.54.041.905.185 1.522.395 2.063.218.559.508 1.034.981 1.506.472.473.946.763 1.505.981.541.21 1.159.353 2.064.394l.398.018.184.007c.457.017.92.024 1.958.026l.828.001h1.1c1.453-.004 1.78-.017 2.541-.052.904-.041 1.522-.184 2.062-.394.56-.218 1.034-.508 1.506-.981.473-.472.764-.947.981-1.506.21-.541.353-1.158.395-2.063.034-.761.047-1.087.05-2.54l.001-.828v-1.1c-.003-.9-.008-1.368-.02-1.774l-.01-.276-.021-.491c-.042-.904-.185-1.522-.395-2.063-.217-.559-.508-1.034-.981-1.506-.472-.472-.946-.763-1.506-.98-.54-.211-1.158-.354-2.062-.395-.762-.034-1.088-.047-2.541-.05zm.016 1.532c.873.002 1.322.007 1.718.02l.234.007.503.022c.829.037 1.279.176 1.578.292.397.154.68.339.977.636.298.298.482.581.636.977.116.3.255.75.293 1.578l.018.408.007.188c.016.436.022.882.024 1.86v1.96c-.002.873-.007 1.322-.02 1.718l-.007.234-.022.503c-.038.828-.177 1.278-.293 1.578-.154.396-.338.679-.636.977-.297.297-.58.482-.977.636-.299.116-.749.255-1.578.293l-.503.021-.234.008c-.396.012-.845.017-1.718.02h-1.96c-1.397-.004-1.708-.016-2.455-.049-.829-.038-1.278-.177-1.578-.293-.397-.154-.68-.339-.977-.636-.298-.298-.482-.581-.636-.977-.117-.3-.255-.75-.293-1.578l-.022-.503-.008-.234c-.011-.396-.016-.845-.018-1.718v-1.96c.003-1.397.014-1.708.048-2.456.038-.828.176-1.278.293-1.578.154-.396.338-.679.636-.977.297-.297.58-.482.977-.636.3-.116.749-.255 1.578-.292.747-.034 1.058-.046 2.455-.05zM16 12.135c-2.411 0-4.365 1.954-4.365 4.365 0 2.41 1.954 4.364 4.365 4.364 2.411 0 4.365-1.954 4.365-4.364 0-2.411-1.954-4.365-4.365-4.365zm0 1.531c1.564 0 2.833 1.269 2.833 2.834 0 1.564-1.269 2.833-2.833 2.833-1.565 0-2.833-1.269-2.833-2.833 0-1.565 1.268-2.834 2.833-2.834zm4.537-2.724c-.563 0-1.02.458-1.02 1.02 0 .563.457 1.02 1.02 1.02.564 0 1.02-.457 1.02-1.02 0-.562-.456-1.02-1.02-1.02z"/>
                </g>
            </g>
        </g>
    </g>
</svg>
